<svg height="512" width="512" xmlns="http://www.w3.org/2000/svg"><rect fill="#b36f42" height="424" rx="16" width="320" x="95.946" y="56"/><path d="M127.946 88h256v360h-256z" fill="#5771e5"/><path d="M319.946 200a64 64 0 11-64-64 63.743 63.743 0 0164 64z" fill="#a2c1fa"/><path d="M303.946 224v18.34a64.02 64.02 0 01-104-11.33V224a15.996 15.996 0 0116-16h72a15.996 15.996 0 0116 16z" fill="#ed6445"/><path d="M263.946 192v36a12 12 0 11-24 0v-36z" fill="#ffceb6"/><path d="M223.946 56l8.844-17.69A25.889 25.889 0 01255.946 24 25.888 25.888 0 01279.1 38.31L287.946 56z" fill="#f5a431"/><path d="M343.946 56l-24 48h-128l-24-48z" fill="#f7c04a"/><path d="M159.946 280h40v16h-40zm56 0h24v16h-24zm136 32h-192a8 8 0 00-8 8v96a8 8 0 008 8h192a8 8 0 008-8v-96a8 8 0 00-8-8zm-8 32h-40v-16h40zm-96 0v-16h40v16zm40 16v48h-40v-48zm-56-32v16h-64v-16zm-64 32h64v48h-64zm136 48v-48h40v48z" fill="#3d44d1"/><path d="M263.946 192v32a15.996 15.996 0 01-16-16v-16z" fill="#ffbfa1"/><path d="M271.946 184l4.686-4.686a11.314 11.314 0 003.314-8A11.314 11.314 0 00268.632 160h-12.686a16 16 0 00-16 16v16l16-8z" fill="#b36f42"/><path d="M255.946 216a16 16 0 01-16-16v-8l16-8h16v16a16 16 0 01-16 16z" fill="#ffceb6"/></svg>