<svg height="512" viewBox="0 0 497.001 497.001" width="512" xmlns="http://www.w3.org/2000/svg"><path d="M96.001 497l-70.543-5.883c-5.523 0-10-4.477-10-10l-1.934-354.611 39.317-5.389 62.447 5.872v342.894z" fill="#5f6c75"/><path d="M110.23 477L96 497H20c-5.523 0-10-4.477-10-10V126.99l8.266-4.523L25 126.99V471a6 6 0 006 6z" fill="#4e5a61"/><path d="M401.001 497l73.776-2.862c5.523 0 10-4.477 10-10l2.224-7.138V126.99l-51.032-5.617-58.514 5.617v353.617z" fill="#5f6c75"/><path d="M421 471V126.99l-16-4.596-27.55 4.596v353.62L401 497h76c5.523 0 10-4.477 10-10v-10h-60a6 6 0 01-6-6z" fill="#4e5a61"/><path d="M401.001 339.99h43a5 5 0 005-5v-49a5 5 0 00-5-5h-43zm0 104h43a5 5 0 005-5v-49a5 5 0 00-5-5h-43zm0-208h43a5 5 0 005-5v-49a5 5 0 00-5-5h-43z" fill="#bed9fd"/><path d="M396.905 280.99h24.096v59h-24.096zm0 104h24.096v59h-24.096zm0-208h24.096v59h-24.096z" fill="#9ec8fc"/><path d="M398.079 123.549l92.017.324a5 5 0 005-5l1.905-6.882V101.99a5 5 0 00-5-5H421l-24.095 4.723z" fill="#5f6c75"/><path d="M497 111.99v10a5 5 0 01-5 5h-91l-3.543-15 3.543-15h20v10a5 5 0 005 5z" fill="#4e5a61"/><path d="M106.001 235.99h-53a5 5 0 01-5-5v-49a5 5 0 015-5h53zm0 104h-53a5 5 0 01-5-5v-49a5 5 0 015-5h53zm0 104h-53a5 5 0 01-5-5v-49a5 5 0 015-5h53z" fill="#bed9fd"/><path d="M96.001 126.99L9.33 122.52a5 5 0 01-5-5l-2.149-14.496a5 5 0 015-5L15 96.99h81.001l7.5 17.566z" fill="#5f6c75"/><path d="M96 111.99l3.713 6.829L96 126.99H5c-2.76 0-5-2.24-5-5v-20c0-2.76 2.24-5 5-5h10v10c0 2.76 2.24 5 5 5z" fill="#4e5a61"/><path d="M401.001 35v442l-4.607 12.798-294.393 2.553V35l138.994-7.755z" fill="#5f6c75"/><path d="M405 477v20h-35.04l-21.5-6.786-21.5 6.786h-31.64l-57.054-9.16L201.67 497H171l-23.457-5.415L128 497H86l10-20.032V35l7.5-9.457L110 35v436a6 6 0 006 6z" fill="#4e5a61"/><path d="M163.5 74.5v47.05c0 1.1-.9 2-2 2h-24c-1.1 0-2-.9-2-2V74.5c0-1.1.9-2 2-2h24c1.1 0 2 .9 2 2zm0 66.05v47.05c0 1.1-.9 2-2 2h-24c-1.1 0-2-.9-2-2v-47.05a2 2 0 012-2h24a2 2 0 012 2zm0 66.05v47.05c0 1.1-.9 2-2 2h-24c-1.1 0-2-.9-2-2V206.6a2 2 0 012-2h24a2 2 0 012 2zm0 66.05v47.04a2 2 0 01-2 2h-24a2 2 0 01-2-2v-47.04a2 2 0 012-2h24a2 2 0 012 2zm0 66.04v47.41c0 1.1-.9 2-2 2h-24c-1.1 0-2-.9-2-2v-47.41c0-1.1.9-2 2-2h24c1.1 0 2 .9 2 2zM240.99 74.5v47.05a2 2 0 01-2 2h-27.82c-1.1 0-2-.9-2-2V74.5c0-1.1.9-2 2-2h27.82a2 2 0 012 2zm0 66.05v47.05a2 2 0 01-2 2h-27.82c-1.1 0-2-.9-2-2v-47.05a2 2 0 012-2h27.82c1.11 0 2 .89 2 2zm0 66.05v47.05a2 2 0 01-2 2h-27.82c-1.1 0-2-.9-2-2V206.6a2 2 0 012-2h27.82c1.11 0 2 .89 2 2zm0 66.05v47.04c0 1.11-.89 2-2 2h-27.82a2 2 0 01-2-2v-47.04a2 2 0 012-2h27.82c1.11 0 2 .89 2 2zm0 66.04v47.41a2 2 0 01-2 2h-27.82c-1.1 0-2-.9-2-2v-47.41c0-1.1.9-2 2-2h27.82a2 2 0 012 2zM287.81 74.5v47.05a2 2 0 01-2 2h-27.82c-1.1 0-2-.9-2-2V74.5c0-1.1.9-2 2-2h27.82a2 2 0 012 2zm0 66.05v47.05a2 2 0 01-2 2h-27.82c-1.1 0-2-.9-2-2v-47.05a2 2 0 012-2h27.82c1.11 0 2 .89 2 2zm0 66.05v47.05a2 2 0 01-2 2h-27.82c-1.1 0-2-.9-2-2V206.6a2 2 0 012-2h27.82c1.11 0 2 .89 2 2zm0 66.05v47.04c0 1.11-.89 2-2 2h-27.82a2 2 0 01-2-2v-47.04a2 2 0 012-2h27.82c1.11 0 2 .89 2 2zm0 66.04v47.41a2 2 0 01-2 2h-27.82c-1.1 0-2-.9-2-2v-47.41c0-1.1.9-2 2-2h27.82a2 2 0 012 2zM362.45 74.5v47.05a2 2 0 01-2 2h-24c-1.1 0-2-.9-2-2V74.5c0-1.1.9-2 2-2h24a2 2 0 012 2zm0 66.05v47.05a2 2 0 01-2 2h-24c-1.1 0-2-.9-2-2v-47.05a2 2 0 012-2h24c1.11 0 2 .89 2 2zm0 66.05v47.05a2 2 0 01-2 2h-24c-1.1 0-2-.9-2-2V206.6a2 2 0 012-2h24c1.11 0 2 .89 2 2zm0 66.05v47.04c0 1.11-.89 2-2 2h-24a2 2 0 01-2-2v-47.04a2 2 0 012-2h24c1.11 0 2 .89 2 2zm0 66.04v47.41a2 2 0 01-2 2h-24c-1.1 0-2-.9-2-2v-47.41c0-1.1.9-2 2-2h24a2 2 0 012 2z" fill="#bed9fd"/><path d="M401 30.734L93.224 32.926a5 5 0 01-5-5l2.777-20.681a5 5 0 015-5L106 0h300.001a5 5 0 015 5v10L406 25.734a5 5 0 01-5 5z" fill="#5f6c75"/><path d="M411 15v15c0 2.76-2.24 5-5 5H91c-2.76 0-5-2.24-5-5V5c0-2.76 2.24-5 5-5h15v10c0 2.76 2.24 5 5 5z" fill="#4e5a61"/><path d="M171 430.7V477l-.819 16.798-40.17.34.49-60.426c0-2.76 2.24-5 5-5L148 425.7h18c2.76 0 5 2.24 5 5zm198.96 0V477l-1.481 17.138h-38.298l-.726-61.723c0-2.76 2.23-5 5-5l12.505-1.715h18c2.76 0 5 2.24 5 5zm-74.64 0V477l-2.415 17.138-88.17-1.787-.56-59.085c0-2.76 2.24-5 5-5l12.495-2.566h68.65c2.76 0 5 2.24 5 5z" fill="#bed9fd"/><path d="M171 477v20h-43v-66.3a5 5 0 015-5h15V472a5 5 0 005 5zm198.96 0v20h-43v-66.3c0-2.76 2.23-5 5-5h15V472a5 5 0 005 5zm-74.64 0v20h-93.65v-66.3a5 5 0 015-5h15V472a5 5 0 005 5z" fill="#9ec8fc"/></svg>