<svg height="512" viewBox="0 0 497 497" width="512" xmlns="http://www.w3.org/2000/svg"><path d="M416.839 493.922L84.5 491.968c-8.284 0-15-6.716-15-15L67.04 55.329c0-8.284 6.716-15 15-15l2.8-2.052h332.322c8.284 0 15 6.716 15 15V477l-2.992 4.261c-.001 8.285-4.047 12.661-12.331 12.661z" fill="#b78c7a"/><path d="M329.559 38.28v53.41h-162.12V38.28h16.996l48.44 15.092 79.688-15.092z" fill="#ab7b64"/><path d="M302.563 19.16h-33.632a2 2 0 01-1.982-1.797C265.884 7.6 257.625 0 247.579 0s-5.86 5.37-6.925 15.133c-.111 1.019-13.402 4.027-14.427 4.027h-31.792c-5.523 0-5.817 5.313-5.817 10.836l-4.183 44.696h128.128V29.16c0-5.523-4.477-10-10-10z" fill="#ffe07d"/><path d="M204.439 59.69a5 5 0 01-5-5V29.16c0-5.52 4.47-10 10-10h-15c-5.53 0-10 4.48-10 10v45.53l60.656 13.434 67.464-13.434v-15zm50.64-58.19c-6.42 2.67-11.09 8.68-11.87 15.86-.11 1.02-.96 1.8-1.98 1.8h-15c1.02 0 1.87-.78 1.98-1.8C229.269 7.6 237.529 0 247.579 0c2.66 0 5.19.53 7.5 1.5z" fill="#ffd064"/><path d="M432.159 477v5c0 8.28-6.71 15-15 15H79.839c-8.29 0-15-6.72-15-15V53.28c0-8.29 6.71-15 15-15h5V470c0 3.87 3.13 7 7 7z" fill="#ab7b64"/><path d="M113.407 458.468l200.367-3.078a9.998 9.998 0 007.006-2.865l68.514-68.947a9.999 9.999 0 002.994-7.135l4.018-8.843V84.691c0-5.523-4.477-10-10-10H115.689l-2.282 3.873c-5.523 0-10 4.477-10 10v359.904c0 5.523 4.478 10 10 10z" fill="#f5fcff"/><path d="M332.459 446.3l-12.36 12.14a9.988 9.988 0 01-7.01 2.86h-202.4c-5.52 0-10-4.47-10-10V84.69c0-5.523 4.477-10 10-10h5V439.3a7 7 0 007 7z" fill="#e6f7fe"/><path d="M301.278 393.6v67.7h11.81c1.31 0 2.595-.255 3.786-.74s16.351-34.856 17.286-35.776l27.776-32.587c.874-.856 32.946-7.512 33.449-8.599a9.975 9.975 0 00.923-4.189V367.6h-69.03c-14.34 0-26 11.66-26 26z" fill="#e6f7fe"/><path d="M317.278 393.6v66.79a9.893 9.893 0 002.82-1.95l73.21-71.9c.87-.86 1.58-1.85 2.08-2.94h-68.11c-5.53 0-10 4.48-10 10z" fill="#d3effd"/><path d="M345.528 145.812l-193.554-1.321a5 5 0 01-5-5l-2.49-21.422a5 5 0 015-5l6.236-1.994h193.716a5 5 0 015 5v17.616l-3.908 7.122a5 5 0 01-5 4.999z" fill="#bed9fd"/><path d="M354.439 133.69v10a5 5 0 01-5 5h-203.72a5 5 0 01-5-5v-27.62a5 5 0 015-5h10v17.62a5 5 0 005 5z" fill="#9ec8fc"/><path d="M354.436 217.089H199.201c-4.143 0-7.5-3.358-7.5-7.5s3.357-7.5 7.5-7.5h155.234c4.143 0 7.5 3.358 7.5 7.5s-3.357 7.5-7.499 7.5zm-110.043 35.124h-45.191c-4.143 0-7.5-3.358-7.5-7.5s3.357-7.5 7.5-7.5h45.191a7.5 7.5 0 010 15zm110.043 0h-68.682c-4.143 0-7.5-3.358-7.5-7.5s3.357-7.5 7.5-7.5h68.682a7.5 7.5 0 010 15zm0 35.123H199.201c-4.143 0-7.5-3.358-7.5-7.5s3.357-7.5 7.5-7.5h155.234c4.143 0 7.5 3.358 7.5 7.5s-3.357 7.5-7.499 7.5z" fill="#e6f7fe"/><path d="M153.244 217.089h-12.521c-4.143 0-7.5-3.358-7.5-7.5s3.357-7.5 7.5-7.5h12.521c4.143 0 7.5 3.358 7.5 7.5s-3.357 7.5-7.5 7.5zm0 35.124h-12.521c-4.143 0-7.5-3.358-7.5-7.5s3.357-7.5 7.5-7.5h12.521c4.143 0 7.5 3.358 7.5 7.5s-3.357 7.5-7.5 7.5zm0 35.123h-12.521c-4.143 0-7.5-3.358-7.5-7.5s3.357-7.5 7.5-7.5h12.521c4.143 0 7.5 3.358 7.5 7.5s-3.357 7.5-7.5 7.5zm0 35.571h-12.521c-4.143 0-7.5-3.358-7.5-7.5s3.357-7.5 7.5-7.5h12.521c4.143 0 7.5 3.358 7.5 7.5s-3.357 7.5-7.5 7.5z" fill="#ffe07d"/><path d="M337.84 322.907H199.201c-4.143 0-7.5-3.358-7.5-7.5s3.357-7.5 7.5-7.5H337.84c4.143 0 7.5 3.358 7.5 7.5s-3.357 7.5-7.5 7.5z" fill="#e6f7fe"/><path d="M206.018 390.119c0-17.862-14.48-32.342-32.342-32.342-3.425 0-6.725.532-9.823 1.519-13.06 4.158-16.879 15.272-16.879 29.709 0 17.862 8.84 27.501 26.702 27.501 14.438 0 26.666-3.504 30.824-16.564a32.366 32.366 0 001.518-9.823z" fill="#d5717f"/><path d="M204.494 399.94c-4.15 13.06-16.38 22.52-30.82 22.52-17.86 0-32.34-14.48-32.34-32.34 0-14.44 9.46-26.67 22.52-30.82-.99 3.1-1.52 6.4-1.52 9.82 0 17.86 14.48 32.34 32.34 32.34 3.42 0 6.72-.53 9.82-1.52z" fill="#cd5668"/></svg>