<svg height="512" viewBox="0 0 497 497" width="512" xmlns="http://www.w3.org/2000/svg"><path d="M413.5 0h-330c-8.284 0-13.66 6.62-13.66 14.904v9.984l-.255 455.888c0 8.284 6.716 15 15 15l328.149-.106c8.284 0 14.553-5.248 14.553-13.532L428.5 480V15c0-8.284-6.716-15-15-15z" fill="#ffe07d"/><path d="M428.5 480v2c0 8.284-6.716 15-15 15h-330c-8.284 0-15-6.716-15-15V15c0-8.284 6.716-15 15-15h2v472a8 8 0 008 8z" fill="#ffd064"/><path d="M353.049 462.734l-209.099-.574a4.994 4.994 0 01-4.497-2.831c-7.494-15.529-18.913-26.477-34.442-33.971a4.994 4.994 0 01-2.831-4.497L100.309 83.16c0-1.341 1.645-2.51 2.608-1.577 6.241 6.049 11.672 5.975 17.862 6.638 9.795 1.049 17.655-2.236 17.655-2.236.94 0 1.734.728 1.78 1.666.869 17.833 15.602 32.024 33.65 32.024 8.994 0 17.16-3.529 23.2-9.273 1.123-1.068 2.996-.27 3.003 1.28.156 33.776 30.093 45.01 48.434 45.01 18.342 0 48.488-11.234 48.472-44.924v-.049c-.002-1.554 1.834-2.392 2.96-1.321 6.041 5.747 14.209 9.277 23.205 9.277 18.048 0 32.781-14.192 33.65-32.024.046-.939.84-1.666 1.78-1.666 0 0 21.402 8.069 37.049-6.869.97-.926 2.608.236 2.608 1.577v343.083a4.994 4.994 0 01-2.831 4.497 76.492 76.492 0 00-22.424 16.447c-5.319 5.648-12.012 8.118-15.422 15.185a5 5 0 01-4.499 2.829z" fill="#f5fcff"/><path d="M372.97 444.72a76.367 76.367 0 00-13.2 19.17 4.99 4.99 0 01-4.5 2.83H141.73a4.99 4.99 0 01-4.5-2.83 76.614 76.614 0 00-35.62-35.62 4.99 4.99 0 01-2.83-4.5V80.69c0-1.537 1.832-2.3 2.95-1.245 6.15 5.804 12.975 8.117 19.05 8.765v323.939c0 1.017.521 1.956 1.373 2.512a99.143 99.143 0 0128.686 28.686 3.004 3.004 0 002.512 1.373z" fill="#e6f7fe"/><path d="M347.798 252.784H241.266c-4.143 0-7.5-3.358-7.5-7.5s3.357-7.5 7.5-7.5h106.532a7.5 7.5 0 010 15zm-141.702 0h-56.894c-4.143 0-7.5-3.358-7.5-7.5s3.357-7.5 7.5-7.5h56.894a7.5 7.5 0 010 15zm141.702-36.089h-45.106c-4.143 0-7.5-3.358-7.5-7.5s3.357-7.5 7.5-7.5h45.106a7.5 7.5 0 010 15zm-80.17 0H149.202c-4.143 0-7.5-3.358-7.5-7.5s3.357-7.5 7.5-7.5h118.426c4.143 0 7.5 3.358 7.5 7.5s-3.357 7.5-7.5 7.5z" fill="#e6f7fe"/><path d="M169.048 408.181l-3.455-8.429a5 5 0 00-4.271-2.568l-10.483.879c-3.805-.075-6.135-4.203-4.232-7.499l.231-4.126 28.508-49.377 33.01 19.058-28.684 49.682-1.924 2.449c-1.943 3.364-6.812 3.325-8.7-.069z" fill="#ffe07d"/><path d="M179.67 405.8l-3.53 6.12c-1.94 3.36-6.81 3.32-8.7-.07l-4.67-8.39a4.985 4.985 0 00-4.27-2.57l-11.32-.22c-3.8-.08-6.13-4.21-4.23-7.5l3.89-6.73 19.66.45c1.78.03 3.4 1.01 4.27 2.57z" fill="#ffd064"/><path d="M230.186 408.485l6.328-7.604a4.999 4.999 0 013.911-2.257l5.708-.145c3.722-.204 5.92-4.264 4.056-7.492l-.151-6.495-27.384-47.43-33.01 19.058 27.508 47.645 4.517 4.486c1.865 3.227 6.478 3.354 8.517.234z" fill="#ffe07d"/><path d="M239.81 337.034a40.87 40.87 0 01-1.337 10.397c-4.597 17.494-18.122 25.261-37.058 25.261-22.53 0-39.319-13.101-39.319-35.631 0-15.887 5.207-29.679 18.462-36.416a40.625 40.625 0 0118.459-4.405c22.529 0 40.793 18.264 40.793 40.794z" fill="#d5717f"/><path d="M251.16 400.95l-10.67.58a5.01 5.01 0 00-3.91 2.26l-5.86 8.96c-2.04 3.12-6.65 2.99-8.51-.23l-5.05-8.76 10.42-15.97a5.01 5.01 0 013.91-2.26l18.55-1.04 5.17 8.96c1.87 3.23-.33 7.29-4.05 7.5z" fill="#ffd064"/><path d="M238.47 347.43c-4.59 17.49-20.51 30.4-39.45 30.4-22.53 0-40.8-18.27-40.8-40.8 0-15.88 9.08-29.65 22.34-36.38a40.35 40.35 0 00-1.34 10.38c0 22.53 18.27 40.8 40.8 40.8 6.64 0 12.91-1.59 18.45-4.4z" fill="#cd5668"/><path d="M347.798 332.532h-62.809c-4.143 0-7.5-3.358-7.5-7.5s3.357-7.5 7.5-7.5h62.809a7.5 7.5 0 010 15zm0 31.595h-34.553c-4.143 0-7.5-3.358-7.5-7.5s3.357-7.5 7.5-7.5h34.553a7.5 7.5 0 010 15z" fill="#e6f7fe"/><path d="M307.5 54.504h-118c-4.143 0-7.5-3.358-7.5-7.5s3.357-7.5 7.5-7.5h118c4.143 0 7.5 3.358 7.5 7.5s-3.357 7.5-7.5 7.5zm-40.659 30.002h-36.682c-4.143 0-7.5-3.358-7.5-7.5s3.357-7.5 7.5-7.5h36.682a7.5 7.5 0 010 15z" fill="#ffd064"/></svg>