<svg height="512" width="512" xmlns="http://www.w3.org/2000/svg"><path d="M82.581 330.323H66.064c-22.804 0-41.29-18.486-41.29-41.29 0-13.682 11.092-24.774 24.774-24.774H82.58v66.064z" fill="#3c91be"/><path d="M396.387 0H90.839l-8.506 16.516V504H470.71l16.516-8.516V90.839z" fill="#e9f6ff"/><path d="M90.839 470.71V0c-9.121 0-16.516 7.394-16.516 16.516v478.968c0 9.122 7.395 16.516 16.516 16.516H470.71c9.121 0 16.516-7.395 16.516-16.516H115.613c-13.683 0-24.774-11.092-24.774-24.774z" fill="#d9edff"/><path d="M355.097 313.806H49.548c-2.896 0-5.676-.497-8.26-1.41l-8.063 13.354v103.476C33.226 442.908 44.318 454 58 454h297.097l16.516-8.065V330.323c0-9.122-7.395-16.517-16.516-16.517z" fill="#7dc3ee"/><path d="M371.613 264.258H189.935c-4.565 0-8.258-3.698-8.258-8.258s3.694-8.258 8.258-8.258h181.677c4.565 0 8.258 3.698 8.258 8.258s-3.693 8.258-8.257 8.258z" fill="#64acdc"/><path d="M371.613 222.968H189.935c-4.565 0-8.258-3.698-8.258-8.258s3.694-8.258 8.258-8.258h181.677a8.256 8.256 0 018.258 8.258 8.255 8.255 0 01-8.257 8.258z" fill="#7dc3ee"/><path d="M371.613 181.677h-66.065c-4.565 0-8.258-3.698-8.258-8.258s3.694-8.258 8.258-8.258h66.065c4.565 0 8.258 3.698 8.258 8.258s-3.694 8.258-8.258 8.258z" fill="#64acdc"/><path d="M371.613 140.387h-66.065c-4.565 0-8.258-3.698-8.258-8.258s3.694-8.258 8.258-8.258h66.065a8.256 8.256 0 018.258 8.258 8.256 8.256 0 01-8.258 8.258z" fill="#7dc3ee"/><path d="M82.718 429.734a8.262 8.262 0 01-8.259-8.226s-.089-24.181-.089-33.452l-.048-33.258a8.248 8.248 0 012.411-5.851 8.258 8.258 0 015.847-2.423h18.887c21.048 0 35.194 16.718 35.194 41.605 0 23.673-14.508 41.105-34.492 41.456-5.419.093-19.419.149-19.419.149h-.032zm8.129-66.694l.04 25.016c0 5.746.032 17.238.056 25.117 3.976-.024 8.403-.06 10.935-.105 12.621-.218 18.266-12.685 18.266-24.94 0-12.129-4.903-25.089-18.677-25.089h-10.62zm201.314 67.71c-23.5 0-42.621-19.121-42.621-42.621s19.121-42.621 42.621-42.621c8.54 0 16.782 2.52 23.831 7.286 3.782 2.552 4.774 7.685 2.218 11.468-2.54 3.774-7.694 4.766-11.46 2.218a25.97 25.97 0 00-14.589-4.456c-14.395 0-26.105 11.71-26.105 26.105s11.71 26.105 26.105 26.105c5.347 0 9.839-1.593 13.363-4.73a19.69 19.69 0 001.96-2.024c2.919-3.476 8.129-3.948 11.629-1.016a8.259 8.259 0 011.016 11.637 35.392 35.392 0 01-3.629 3.746c-6.54 5.818-14.96 8.903-24.339 8.903zm-98.161 0c-23.5 0-42.621-19.121-42.621-42.621S170.5 345.508 194 345.508s42.621 19.121 42.621 42.621S217.5 430.75 194 430.75zm0-68.726c-14.395 0-26.105 11.71-26.105 26.105s11.71 26.105 26.105 26.105 26.105-11.71 26.105-26.105-11.71-26.105-26.105-26.105z" fill="#fff"/><path d="M264.258 173.419h-66.065a8.258 8.258 0 01-8.258-8.258v-33.032a8.258 8.258 0 018.258-8.258h66.065a8.258 8.258 0 018.258 8.258v33.032a8.258 8.258 0 01-8.258 8.258z" fill="#7dc3ee"/><path d="M487.226 89.421c0-4.38-1.74-8.581-4.838-11.679L409.48 4.837A16.516 16.516 0 00397.802 0h-1.415v82.581a8.258 8.258 0 008.258 8.258h82.581z" fill="#d9edff"/><path d="M41.29 312.396c-9.6-3.413-16.516-12.593-16.516-23.364v148.645c0 13.682 11.092 24.774 24.774 24.774h305.548c9.121 0 16.516-7.395 16.516-16.516H66.065c-13.682 0-24.774-11.092-24.774-24.774V312.396zm181.678-147.235c-13.682 0-24.774-11.092-24.774-24.774v-16.516h-8.258a8.258 8.258 0 00-8.258 8.258v41.29a8.258 8.258 0 008.258 8.258h74.323a8.258 8.258 0 008.258-8.258v-8.258z" fill="#64acdc"/></svg>