<svg height="512" viewBox="0 0 497 497" width="512" xmlns="http://www.w3.org/2000/svg"><path d="M497 125.01v246.98c0 11.05-8.95 20-20 20H20c-11.05 0-20-8.95-20-20V125.01c0-.08 0-.17.01-.25l226.28 151.08a39.988 39.988 0 0044.42 0l226.28-151.08c.01.08.01.17.01.25z" fill="#f7e5c1"/><path d="M215.18 292.47c9.9 6.61 21.42 10.11 33.32 10.11s23.42-3.5 33.32-10.11L497 148.8v-23.79l-.217-.121L270.71 265.84a39.988 39.988 0 01-44.42 0L.01 124.76l-.01.006V371.99c0 11.046 8.954 20 20 20h457c11.05 0 20-8.95 20-20H29a9 9 0 01-9-9V167.764c0-2.397 2.672-3.826 4.666-2.495z" fill="#f4d9b1"/><path d="M444.053 347.33l-106.979-1.021c-7.732 0-5.106 1.094-5.106-6.638l-7.404-24c0-7.732 3.97-14.904 11.702-14.904h109.225c7.732 0 14 6.268 14 14v21.004l-8.545 4.411c.001 7.731.839 7.148-6.893 7.148z" fill="#f5fcff"/><path d="M459.49 335.77v4c0 7.73-6.27 14-14 14H336.27c-7.74 0-14-6.27-14-14v-25c0-7.74 6.26-14 14-14h4v30c0 2.76 2.23 5 5 5z" fill="#e6f7fe"/><path d="M134.918 353.724H37.436a7.5 7.5 0 010-15h97.482a7.5 7.5 0 010 15zm0-30H37.436a7.5 7.5 0 010-15h97.482a7.5 7.5 0 010 15z" fill="#f5fcff"/><path d="M496.99 124.76L270.71 275.84a39.988 39.988 0 01-44.42 0L.01 124.76c.13-10.94 9.02-19.75 19.99-19.75h457c10.97 0 19.86 8.81 19.99 19.75z" fill="#f7e5c1"/></svg>