<svg height="512" width="512" xmlns="http://www.w3.org/2000/svg"><path d="M422.576 94.63V472a16.002 16.002 0 01-16 16h-302.63a15.996 15.996 0 01-16-16V40a15.996 15.996 0 0116-16h248a16.094 16.094 0 0111.31 4.69l54.63 54.62a16.144 16.144 0 014.69 11.32z" fill="#5771e5"/><path d="M192.512 151.193l-10.105-10.105 22.627-22.627 10.105 10.105a14.532 14.532 0 0015.836 3.15 14.532 14.532 0 008.97-13.426V104h32v14.29a14.532 14.532 0 008.971 13.426 14.532 14.532 0 0015.837-3.15l10.105-10.105 22.627 22.627-10.105 10.105a14.532 14.532 0 00-3.15 15.836A14.532 14.532 0 00329.656 176h14.29v32h-14.29a14.532 14.532 0 00-13.426 8.97 14.532 14.532 0 003.15 15.837l10.105 10.105-22.627 22.627-10.105-10.105a14.532 14.532 0 00-15.837-3.15 14.532 14.532 0 00-8.97 13.426V280h-32v-14.29a14.532 14.532 0 00-8.97-13.426 14.532 14.532 0 00-15.837 3.15l-10.105 10.105-22.627-22.627 10.105-10.105a14.532 14.532 0 003.15-15.836A14.532 14.532 0 00182.236 208h-14.29v-32h14.29a14.532 14.532 0 0013.426-8.97 14.532 14.532 0 00-3.15-15.837z" fill="#ed6445"/><circle cx="255.946" cy="192" fill="#de402f" r="32"/><path d="M421.126 88h-46.55a15.996 15.996 0 01-16-16V25.45a15.783 15.783 0 014.68 3.24l54.63 54.62a15.823 15.823 0 013.24 4.69z" fill="#89a8f5"/><path d="M351.946 288h24v24h-24z" fill="#eb8117"/><path d="M295.946 312h16v16h-16zm80-80h16v16h-16z" fill="#f7c04a"/><path d="M175.946 360h24v16h-24zm40 0h120v16h-120zm136 0h40v16h-40zm-224 40h120v16h-120zm136 0h128v16h-128zm-136 40h64v16h-64zm80 0h96v16h-96zm112 0h24v16h-24z" fill="#3d44d1"/><path d="M255.946 208a7.976 7.976 0 01-5.657-2.343l-16-16 11.314-11.314 10.343 10.344 34.343-34.344 11.314 11.314-40 40a7.976 7.976 0 01-5.657 2.343z" fill="#5ebd92"/><path d="M383.946 328h-56v-16h48v-48h16v56a8 8 0 01-8 8z" fill="#f7c04a"/><path d="M135.946 288h24v24h-24z" fill="#eb8117"/><path d="M199.946 312h16v16h-16zm-80-80h16v16h-16zm8 96h56v-16h-48v-48h-16v56a8 8 0 008 8z" fill="#f7c04a"/><path d="M135.946 72h24v24h-24z" fill="#eb8117"/><path d="M199.946 56h16v16h-16zm-80 80h16v16h-16zm8-80h56v16h-48v48h-16V64a8 8 0 018-8z" fill="#f7c04a"/></svg>