<svg height="512" viewBox="0 0 497 497" width="512" xmlns="http://www.w3.org/2000/svg"><path d="M472 455.691h-5.5l-230.3-31.259-205.7 31.259H25c-13.807 0-25-11.193-25-25V204.002c0-13.807 11.193-25 25-25h447c13.807 0 25 11.193 25 25v226.689c0 13.807-11.193 25-25 25z" fill="#bed9fd"/><path d="M466.5 61.309v374.38l-1.681 15.044-242.468 2.043L216.2 41.309h230.3c11.05 0 20 8.95 20 20z" fill="#5f6c75"/><path d="M466.5 435.689v20H216.2l-15.749-211.04L216.2 41.309h20v388.38a6 6 0 006 6z" fill="#4e5a61"/><path d="M216.2 41.309v414.38H30.5V61.309c0-11.05 8.95-20 20-20z" fill="#5f6c75"/><path d="M216.2 435.689v20H30.5V61.309c0-9.68 6.87-17.75 16-19.6v387.98a6 6 0 006 6z" fill="#4e5a61"/><path d="M412.142 127.179l-140.477-2.315c-5.523 0-10-4.477-10-10l-.128-13.641c0-5.523 4.477-10 10-10l3.443-2.8h139.515c5.523 0 10 4.477 10 10v12.997l-2.352 5.76c-.001 5.522-4.478 9.999-10.001 9.999z" fill="#f5fcff"/><path d="M424.49 111.419v7c0 5.523-4.477 10-10 10H267.98c-5.52 0-10-4.47-10-10v-20c0-5.523 4.477-10 10-10h7v18a5 5 0 005 5z" fill="#e6f7fe"/><path d="M153.867 415.957l-67.376.533c-13.807 0-22.659-9.104-22.659-22.911V104.05c0-12.081 6.155-23.137 17.548-25.468a25.106 25.106 0 015.038-.508h66.974c13.807 0 25 11.193 25 25v290.851c0 1.714-.172 3.388-.501 5.005-2.319 11.408-11.931 17.027-24.024 17.027z" fill="#bed9fd"/><path d="M177.89 398.929c-2.32 11.41-12.4 20-24.5 20H86.42c-13.81 0-25-11.2-25-25v-290.86c0-12.09 8.59-22.18 20-24.5v308.36c0 6.627 5.373 12 12 12z" fill="#9ec8fc"/><path d="M288.883 179.002H273.94v-.003h-10c-2.77 0-5 2.24-5 5v20c0 2.76 2.23 5 5 5h2.941c.009 0 .017.003.025.003l.02-.003h21.953c2.76 0 5-2.24 5-5v-9.988l.003-.012v-9.997a4.998 4.998 0 00-4.999-5zm64.997-.003h-14.943l-.007.002v-.002h-10c-2.76 0-5 2.24-5 5v20c0 2.76 2.24 5 5 5h24.95c2.76 0 5-2.24 5-5v-10h-.001l.001-.003v-9.997a5 5 0 00-5-5zm70.61 5a5 5 0 00-5-5h-24.94c-2.76 0-5 2.24-5 5v20c0 2.76 2.24 5 5 5h24.94c2.77 0 5-2.24 5-5v-10h-.001l.001-.003zm-5 55h-24.94c-2.76 0-5 2.24-5 5v20c0 2.76 2.24 5 5 5h24.94c2.77 0 5-2.24 5-5v-10h-.001l.001-.003v-9.997a5 5 0 00-5-5zm-65.61 0h-14.943l-.007.002v-.002h-10c-2.76 0-5 2.24-5 5v20c0 2.76 2.24 5 5 5h24.95c2.76 0 5-2.24 5-5v-10h-.001l.001-.003v-9.997a5 5 0 00-5-5zm-64.997 0H263.94c-2.77 0-5 2.24-5 5v20c0 2.76 2.23 5 5 5h24.94c2.76 0 5-2.24 5-5v-9.991l.003-.012v-9.997a5 5 0 00-5-5zm0 60H263.94c-2.77 0-5 2.24-5 5v20c0 2.76 2.23 5 5 5h24.94c2.76 0 5-2.24 5-5v-9.991l.003-.012v-9.997a5 5 0 00-5-5zm64.997 0h-14.943l-.007.002v-.002h-10c-2.76 0-5 2.24-5 5v20c0 2.76 2.24 5 5 5h24.95c2.76 0 5-2.24 5-5v-10h-.001l.001-.003v-9.997a5 5 0 00-5-5zm65.61 0h-24.94c-2.76 0-5 2.24-5 5v20c0 2.76 2.24 5 5 5h24.94c2.77 0 5-2.24 5-5v-10h-.001l.001-.003v-9.997a5 5 0 00-5-5z" fill="#4e5a61"/><path d="M424.495 393.457c0-11.99-9.72-21.71-21.71-21.71-1.106 0-2.193.083-3.255.242-10.446 1.57-14.801 10.706-14.801 21.59 0 11.99 6.065 18.782 18.055 18.782 10.457 0 19.187-4.588 21.249-14.432.303-1.443.462-2.939.462-4.472z" fill="#94d4a2"/><path d="M424.03 397.929c-2.06 9.84-10.79 17.24-21.25 17.24-11.99 0-21.71-9.72-21.71-21.71 0-10.89 8.01-19.9 18.46-21.47-.3 1.44-.46 2.94-.46 4.47 0 11.99 9.72 21.71 21.71 21.71 1.1 0 2.19-.08 3.25-.24z" fill="#7fcb8f"/><path d="M341.404 415.957h-82.468c-4.143 0-7.5-3.358-7.5-7.5s3.357-7.5 7.5-7.5h82.468c4.143 0 7.5 3.358 7.5 7.5s-3.357 7.5-7.5 7.5zm0-30h-82.468c-4.143 0-7.5-3.358-7.5-7.5s3.357-7.5 7.5-7.5h82.468c4.143 0 7.5 3.358 7.5 7.5s-3.357 7.5-7.5 7.5z" fill="#d3effd"/></svg>