<svg height="512" width="512" xmlns="http://www.w3.org/2000/svg"><path d="M135.946 120V24h-56a32 32 0 00-32 32v64z" fill="#3d44d1"/><path d="M143.946 488a32 32 0 01-32-32V56a32 32 0 00-32-32h320a32 32 0 0132 32v408a24 24 0 01-24 24z" fill="#5771e5"/><path d="M143.946 488h288a32 32 0 0032-32v-40h-288v40a32 32 0 01-32 32z" fill="#89a8f5"/><g fill="#3d44d1"><path d="M151.946 56h48v16h-48zm64 0h16v16h-16zm160 0h16v16h-16zm-32 0h16v16h-16zm48 80h-240a8 8 0 00-8 8v224a8 8 0 008 8h240a8 8 0 008-8V144a8 8 0 00-8-8zm-8 48h-48v-32h48zm-112 0v-32h48v32zm48 16v160h-48V200zm-64-48v32h-96v-32zm-96 48h96v160h-96zm176 160V200h48v160z"/><path d="M175.946 216h16v16h-16zm32 0h32v16h-32zm8-112h48v16h-48zm64 0h48v16h-48z"/></g></svg>